<mxfile host="app.diagrams.net" modified="2023-04-03T14:16:35.344Z" agent="Mozilla/5.0 (Macintosh; Intel Mac OS X 10_15_7) AppleWebKit/605.1.15 (KHTML, like Gecko) Version/16.3 Safari/605.1.15" etag="ZFCIBAd50ikDYOsa2Bbt" version="21.1.1" type="device">
  <diagram id="prtHgNgQTEPvFCAcTncT" name="Page-1">
    <mxGraphModel dx="1026" dy="669" grid="1" gridSize="10" guides="1" tooltips="1" connect="1" arrows="1" fold="1" page="1" pageScale="1" pageWidth="827" pageHeight="1169" math="0" shadow="0">
      <root>
        <mxCell id="0" />
        <mxCell id="1" parent="0" />
        <mxCell id="kY5r3ShVXXyULgN734uo-365" style="edgeStyle=orthogonalEdgeStyle;rounded=0;orthogonalLoop=1;jettySize=auto;html=1;endArrow=none;endFill=0;" edge="1" parent="1" source="kY5r3ShVXXyULgN734uo-1">
          <mxGeometry relative="1" as="geometry">
            <mxPoint x="230" y="160" as="targetPoint" />
            <Array as="points">
              <mxPoint x="230" y="120" />
            </Array>
          </mxGeometry>
        </mxCell>
        <mxCell id="kY5r3ShVXXyULgN734uo-1" value="Train data" style="shape=cylinder3;whiteSpace=wrap;html=1;boundedLbl=1;backgroundOutline=1;size=15;fontStyle=1;fillColor=#ffcc99;strokeColor=#36393d;" vertex="1" parent="1">
          <mxGeometry x="120" y="80" width="80" height="80" as="geometry" />
        </mxCell>
        <mxCell id="kY5r3ShVXXyULgN734uo-375" style="edgeStyle=orthogonalEdgeStyle;rounded=0;orthogonalLoop=1;jettySize=auto;html=1;entryX=0;entryY=0.5;entryDx=0;entryDy=0;" edge="1" parent="1" source="kY5r3ShVXXyULgN734uo-2" target="kY5r3ShVXXyULgN734uo-373">
          <mxGeometry relative="1" as="geometry" />
        </mxCell>
        <mxCell id="kY5r3ShVXXyULgN734uo-2" value="Test data" style="shape=cylinder3;whiteSpace=wrap;html=1;boundedLbl=1;backgroundOutline=1;size=15;fontStyle=1;fillColor=#ffcc99;strokeColor=#36393d;" vertex="1" parent="1">
          <mxGeometry x="130" y="525" width="60" height="60" as="geometry" />
        </mxCell>
        <mxCell id="kY5r3ShVXXyULgN734uo-363" style="edgeStyle=orthogonalEdgeStyle;rounded=0;orthogonalLoop=1;jettySize=auto;html=1;entryX=0;entryY=0.5;entryDx=0;entryDy=0;" edge="1" parent="1" source="kY5r3ShVXXyULgN734uo-3" target="kY5r3ShVXXyULgN734uo-39">
          <mxGeometry relative="1" as="geometry">
            <Array as="points">
              <mxPoint x="230" y="235" />
              <mxPoint x="230" y="160" />
            </Array>
          </mxGeometry>
        </mxCell>
        <mxCell id="kY5r3ShVXXyULgN734uo-3" value="Experiment&lt;br&gt;config" style="shape=note;whiteSpace=wrap;html=1;backgroundOutline=1;darkOpacity=0.05;fontStyle=1;fillColor=#EBF3FF;strokeColor=#36393d;" vertex="1" parent="1">
          <mxGeometry x="125" y="190" width="70" height="90" as="geometry" />
        </mxCell>
        <mxCell id="kY5r3ShVXXyULgN734uo-33" value="Time-series" style="swimlane;whiteSpace=wrap;html=1;movable=1;resizable=1;rotatable=1;deletable=1;editable=1;locked=0;connectable=1;fillColor=#fff2cc;strokeColor=#d6b656;" vertex="1" parent="1">
          <mxGeometry x="280" y="80" width="160" height="140" as="geometry" />
        </mxCell>
        <mxCell id="kY5r3ShVXXyULgN734uo-39" value="" style="shape=table;startSize=0;container=1;collapsible=0;childLayout=tableLayout;fontSize=16;movable=1;resizable=1;rotatable=1;deletable=1;editable=1;locked=0;connectable=1;fillColor=#fff2cc;strokeColor=#d6b656;" vertex="1" parent="kY5r3ShVXXyULgN734uo-33">
          <mxGeometry y="20" width="160" height="120" as="geometry" />
        </mxCell>
        <mxCell id="kY5r3ShVXXyULgN734uo-93" style="shape=tableRow;horizontal=0;startSize=0;swimlaneHead=0;swimlaneBody=0;strokeColor=inherit;top=0;left=0;bottom=0;right=0;collapsible=0;dropTarget=0;fillColor=none;points=[[0,0.5],[1,0.5]];portConstraint=eastwest;fontSize=16;movable=0;resizable=0;rotatable=0;deletable=0;editable=0;locked=1;connectable=0;" vertex="1" parent="kY5r3ShVXXyULgN734uo-39">
          <mxGeometry width="160" height="10" as="geometry" />
        </mxCell>
        <mxCell id="kY5r3ShVXXyULgN734uo-94" style="shape=partialRectangle;html=1;whiteSpace=wrap;connectable=0;strokeColor=inherit;overflow=hidden;fillColor=none;top=0;left=0;bottom=0;right=0;pointerEvents=1;fontSize=16;movable=0;resizable=0;rotatable=0;deletable=0;editable=0;locked=1;" vertex="1" parent="kY5r3ShVXXyULgN734uo-93">
          <mxGeometry width="110" height="10" as="geometry">
            <mxRectangle width="110" height="10" as="alternateBounds" />
          </mxGeometry>
        </mxCell>
        <mxCell id="kY5r3ShVXXyULgN734uo-95" value="" style="shape=partialRectangle;html=1;whiteSpace=wrap;connectable=0;strokeColor=inherit;overflow=hidden;fillColor=none;top=0;left=0;bottom=0;right=0;pointerEvents=1;fontSize=16;movable=0;resizable=0;rotatable=0;deletable=0;editable=0;locked=1;" vertex="1" parent="kY5r3ShVXXyULgN734uo-93">
          <mxGeometry x="110" width="50" height="10" as="geometry">
            <mxRectangle width="50" height="10" as="alternateBounds" />
          </mxGeometry>
        </mxCell>
        <mxCell id="kY5r3ShVXXyULgN734uo-90" style="shape=tableRow;horizontal=0;startSize=0;swimlaneHead=0;swimlaneBody=0;strokeColor=inherit;top=0;left=0;bottom=0;right=0;collapsible=0;dropTarget=0;fillColor=none;points=[[0,0.5],[1,0.5]];portConstraint=eastwest;fontSize=16;movable=0;resizable=0;rotatable=0;deletable=0;editable=0;locked=1;connectable=0;" vertex="1" parent="kY5r3ShVXXyULgN734uo-39">
          <mxGeometry y="10" width="160" height="10" as="geometry" />
        </mxCell>
        <mxCell id="kY5r3ShVXXyULgN734uo-91" style="shape=partialRectangle;html=1;whiteSpace=wrap;connectable=0;strokeColor=inherit;overflow=hidden;fillColor=none;top=0;left=0;bottom=0;right=0;pointerEvents=1;fontSize=16;movable=0;resizable=0;rotatable=0;deletable=0;editable=0;locked=1;" vertex="1" parent="kY5r3ShVXXyULgN734uo-90">
          <mxGeometry width="110" height="10" as="geometry">
            <mxRectangle width="110" height="10" as="alternateBounds" />
          </mxGeometry>
        </mxCell>
        <mxCell id="kY5r3ShVXXyULgN734uo-92" style="shape=partialRectangle;html=1;whiteSpace=wrap;connectable=0;strokeColor=inherit;overflow=hidden;fillColor=none;top=0;left=0;bottom=0;right=0;pointerEvents=1;fontSize=16;movable=0;resizable=0;rotatable=0;deletable=0;editable=0;locked=1;" vertex="1" parent="kY5r3ShVXXyULgN734uo-90">
          <mxGeometry x="110" width="50" height="10" as="geometry">
            <mxRectangle width="50" height="10" as="alternateBounds" />
          </mxGeometry>
        </mxCell>
        <mxCell id="kY5r3ShVXXyULgN734uo-87" style="shape=tableRow;horizontal=0;startSize=0;swimlaneHead=0;swimlaneBody=0;strokeColor=inherit;top=0;left=0;bottom=0;right=0;collapsible=0;dropTarget=0;fillColor=none;points=[[0,0.5],[1,0.5]];portConstraint=eastwest;fontSize=16;movable=0;resizable=0;rotatable=0;deletable=0;editable=0;locked=1;connectable=0;" vertex="1" parent="kY5r3ShVXXyULgN734uo-39">
          <mxGeometry y="20" width="160" height="10" as="geometry" />
        </mxCell>
        <mxCell id="kY5r3ShVXXyULgN734uo-88" style="shape=partialRectangle;html=1;whiteSpace=wrap;connectable=0;strokeColor=inherit;overflow=hidden;fillColor=none;top=0;left=0;bottom=0;right=0;pointerEvents=1;fontSize=16;movable=0;resizable=0;rotatable=0;deletable=0;editable=0;locked=1;" vertex="1" parent="kY5r3ShVXXyULgN734uo-87">
          <mxGeometry width="110" height="10" as="geometry">
            <mxRectangle width="110" height="10" as="alternateBounds" />
          </mxGeometry>
        </mxCell>
        <mxCell id="kY5r3ShVXXyULgN734uo-89" style="shape=partialRectangle;html=1;whiteSpace=wrap;connectable=0;strokeColor=inherit;overflow=hidden;fillColor=none;top=0;left=0;bottom=0;right=0;pointerEvents=1;fontSize=16;movable=0;resizable=0;rotatable=0;deletable=0;editable=0;locked=1;" vertex="1" parent="kY5r3ShVXXyULgN734uo-87">
          <mxGeometry x="110" width="50" height="10" as="geometry">
            <mxRectangle width="50" height="10" as="alternateBounds" />
          </mxGeometry>
        </mxCell>
        <mxCell id="kY5r3ShVXXyULgN734uo-84" style="shape=tableRow;horizontal=0;startSize=0;swimlaneHead=0;swimlaneBody=0;strokeColor=inherit;top=0;left=0;bottom=0;right=0;collapsible=0;dropTarget=0;fillColor=none;points=[[0,0.5],[1,0.5]];portConstraint=eastwest;fontSize=16;movable=0;resizable=0;rotatable=0;deletable=0;editable=0;locked=1;connectable=0;" vertex="1" parent="kY5r3ShVXXyULgN734uo-39">
          <mxGeometry y="30" width="160" height="10" as="geometry" />
        </mxCell>
        <mxCell id="kY5r3ShVXXyULgN734uo-85" style="shape=partialRectangle;html=1;whiteSpace=wrap;connectable=0;strokeColor=inherit;overflow=hidden;fillColor=none;top=0;left=0;bottom=0;right=0;pointerEvents=1;fontSize=16;movable=0;resizable=0;rotatable=0;deletable=0;editable=0;locked=1;" vertex="1" parent="kY5r3ShVXXyULgN734uo-84">
          <mxGeometry width="110" height="10" as="geometry">
            <mxRectangle width="110" height="10" as="alternateBounds" />
          </mxGeometry>
        </mxCell>
        <mxCell id="kY5r3ShVXXyULgN734uo-86" style="shape=partialRectangle;html=1;whiteSpace=wrap;connectable=0;strokeColor=inherit;overflow=hidden;fillColor=none;top=0;left=0;bottom=0;right=0;pointerEvents=1;fontSize=16;movable=0;resizable=0;rotatable=0;deletable=0;editable=0;locked=1;" vertex="1" parent="kY5r3ShVXXyULgN734uo-84">
          <mxGeometry x="110" width="50" height="10" as="geometry">
            <mxRectangle width="50" height="10" as="alternateBounds" />
          </mxGeometry>
        </mxCell>
        <mxCell id="kY5r3ShVXXyULgN734uo-81" style="shape=tableRow;horizontal=0;startSize=0;swimlaneHead=0;swimlaneBody=0;strokeColor=inherit;top=0;left=0;bottom=0;right=0;collapsible=0;dropTarget=0;fillColor=none;points=[[0,0.5],[1,0.5]];portConstraint=eastwest;fontSize=16;movable=0;resizable=0;rotatable=0;deletable=0;editable=0;locked=1;connectable=0;" vertex="1" parent="kY5r3ShVXXyULgN734uo-39">
          <mxGeometry y="40" width="160" height="10" as="geometry" />
        </mxCell>
        <mxCell id="kY5r3ShVXXyULgN734uo-82" style="shape=partialRectangle;html=1;whiteSpace=wrap;connectable=0;strokeColor=inherit;overflow=hidden;fillColor=none;top=0;left=0;bottom=0;right=0;pointerEvents=1;fontSize=16;movable=0;resizable=0;rotatable=0;deletable=0;editable=0;locked=1;" vertex="1" parent="kY5r3ShVXXyULgN734uo-81">
          <mxGeometry width="110" height="10" as="geometry">
            <mxRectangle width="110" height="10" as="alternateBounds" />
          </mxGeometry>
        </mxCell>
        <mxCell id="kY5r3ShVXXyULgN734uo-83" style="shape=partialRectangle;html=1;whiteSpace=wrap;connectable=0;strokeColor=inherit;overflow=hidden;fillColor=none;top=0;left=0;bottom=0;right=0;pointerEvents=1;fontSize=16;movable=0;resizable=0;rotatable=0;deletable=0;editable=0;locked=1;" vertex="1" parent="kY5r3ShVXXyULgN734uo-81">
          <mxGeometry x="110" width="50" height="10" as="geometry">
            <mxRectangle width="50" height="10" as="alternateBounds" />
          </mxGeometry>
        </mxCell>
        <mxCell id="kY5r3ShVXXyULgN734uo-78" style="shape=tableRow;horizontal=0;startSize=0;swimlaneHead=0;swimlaneBody=0;strokeColor=inherit;top=0;left=0;bottom=0;right=0;collapsible=0;dropTarget=0;fillColor=none;points=[[0,0.5],[1,0.5]];portConstraint=eastwest;fontSize=16;movable=0;resizable=0;rotatable=0;deletable=0;editable=0;locked=1;connectable=0;" vertex="1" parent="kY5r3ShVXXyULgN734uo-39">
          <mxGeometry y="50" width="160" height="10" as="geometry" />
        </mxCell>
        <mxCell id="kY5r3ShVXXyULgN734uo-79" style="shape=partialRectangle;html=1;whiteSpace=wrap;connectable=0;strokeColor=inherit;overflow=hidden;fillColor=none;top=0;left=0;bottom=0;right=0;pointerEvents=1;fontSize=16;movable=0;resizable=0;rotatable=0;deletable=0;editable=0;locked=1;" vertex="1" parent="kY5r3ShVXXyULgN734uo-78">
          <mxGeometry width="110" height="10" as="geometry">
            <mxRectangle width="110" height="10" as="alternateBounds" />
          </mxGeometry>
        </mxCell>
        <mxCell id="kY5r3ShVXXyULgN734uo-80" style="shape=partialRectangle;html=1;whiteSpace=wrap;connectable=0;strokeColor=inherit;overflow=hidden;fillColor=none;top=0;left=0;bottom=0;right=0;pointerEvents=1;fontSize=16;movable=0;resizable=0;rotatable=0;deletable=0;editable=0;locked=1;" vertex="1" parent="kY5r3ShVXXyULgN734uo-78">
          <mxGeometry x="110" width="50" height="10" as="geometry">
            <mxRectangle width="50" height="10" as="alternateBounds" />
          </mxGeometry>
        </mxCell>
        <mxCell id="kY5r3ShVXXyULgN734uo-75" style="shape=tableRow;horizontal=0;startSize=0;swimlaneHead=0;swimlaneBody=0;strokeColor=inherit;top=0;left=0;bottom=0;right=0;collapsible=0;dropTarget=0;fillColor=none;points=[[0,0.5],[1,0.5]];portConstraint=eastwest;fontSize=16;movable=0;resizable=0;rotatable=0;deletable=0;editable=0;locked=1;connectable=0;" vertex="1" parent="kY5r3ShVXXyULgN734uo-39">
          <mxGeometry y="60" width="160" height="10" as="geometry" />
        </mxCell>
        <mxCell id="kY5r3ShVXXyULgN734uo-76" style="shape=partialRectangle;html=1;whiteSpace=wrap;connectable=0;strokeColor=inherit;overflow=hidden;fillColor=none;top=0;left=0;bottom=0;right=0;pointerEvents=1;fontSize=16;movable=0;resizable=0;rotatable=0;deletable=0;editable=0;locked=1;" vertex="1" parent="kY5r3ShVXXyULgN734uo-75">
          <mxGeometry width="110" height="10" as="geometry">
            <mxRectangle width="110" height="10" as="alternateBounds" />
          </mxGeometry>
        </mxCell>
        <mxCell id="kY5r3ShVXXyULgN734uo-77" style="shape=partialRectangle;html=1;whiteSpace=wrap;connectable=0;strokeColor=inherit;overflow=hidden;fillColor=none;top=0;left=0;bottom=0;right=0;pointerEvents=1;fontSize=16;movable=0;resizable=0;rotatable=0;deletable=0;editable=0;locked=1;" vertex="1" parent="kY5r3ShVXXyULgN734uo-75">
          <mxGeometry x="110" width="50" height="10" as="geometry">
            <mxRectangle width="50" height="10" as="alternateBounds" />
          </mxGeometry>
        </mxCell>
        <mxCell id="kY5r3ShVXXyULgN734uo-72" style="shape=tableRow;horizontal=0;startSize=0;swimlaneHead=0;swimlaneBody=0;strokeColor=inherit;top=0;left=0;bottom=0;right=0;collapsible=0;dropTarget=0;fillColor=none;points=[[0,0.5],[1,0.5]];portConstraint=eastwest;fontSize=16;movable=0;resizable=0;rotatable=0;deletable=0;editable=0;locked=1;connectable=0;" vertex="1" parent="kY5r3ShVXXyULgN734uo-39">
          <mxGeometry y="70" width="160" height="10" as="geometry" />
        </mxCell>
        <mxCell id="kY5r3ShVXXyULgN734uo-73" style="shape=partialRectangle;html=1;whiteSpace=wrap;connectable=0;strokeColor=inherit;overflow=hidden;fillColor=none;top=0;left=0;bottom=0;right=0;pointerEvents=1;fontSize=16;movable=0;resizable=0;rotatable=0;deletable=0;editable=0;locked=1;" vertex="1" parent="kY5r3ShVXXyULgN734uo-72">
          <mxGeometry width="110" height="10" as="geometry">
            <mxRectangle width="110" height="10" as="alternateBounds" />
          </mxGeometry>
        </mxCell>
        <mxCell id="kY5r3ShVXXyULgN734uo-74" style="shape=partialRectangle;html=1;whiteSpace=wrap;connectable=0;strokeColor=inherit;overflow=hidden;fillColor=none;top=0;left=0;bottom=0;right=0;pointerEvents=1;fontSize=16;movable=0;resizable=0;rotatable=0;deletable=0;editable=0;locked=1;" vertex="1" parent="kY5r3ShVXXyULgN734uo-72">
          <mxGeometry x="110" width="50" height="10" as="geometry">
            <mxRectangle width="50" height="10" as="alternateBounds" />
          </mxGeometry>
        </mxCell>
        <mxCell id="kY5r3ShVXXyULgN734uo-96" style="shape=tableRow;horizontal=0;startSize=0;swimlaneHead=0;swimlaneBody=0;strokeColor=inherit;top=0;left=0;bottom=0;right=0;collapsible=0;dropTarget=0;fillColor=none;points=[[0,0.5],[1,0.5]];portConstraint=eastwest;fontSize=16;movable=0;resizable=0;rotatable=0;deletable=0;editable=0;locked=1;connectable=0;" vertex="1" parent="kY5r3ShVXXyULgN734uo-39">
          <mxGeometry y="80" width="160" height="10" as="geometry" />
        </mxCell>
        <mxCell id="kY5r3ShVXXyULgN734uo-97" style="shape=partialRectangle;html=1;whiteSpace=wrap;connectable=0;strokeColor=inherit;overflow=hidden;fillColor=none;top=0;left=0;bottom=0;right=0;pointerEvents=1;fontSize=16;movable=0;resizable=0;rotatable=0;deletable=0;editable=0;locked=1;" vertex="1" parent="kY5r3ShVXXyULgN734uo-96">
          <mxGeometry width="110" height="10" as="geometry">
            <mxRectangle width="110" height="10" as="alternateBounds" />
          </mxGeometry>
        </mxCell>
        <mxCell id="kY5r3ShVXXyULgN734uo-98" style="shape=partialRectangle;html=1;whiteSpace=wrap;connectable=0;strokeColor=inherit;overflow=hidden;fillColor=none;top=0;left=0;bottom=0;right=0;pointerEvents=1;fontSize=16;movable=0;resizable=0;rotatable=0;deletable=0;editable=0;locked=1;" vertex="1" parent="kY5r3ShVXXyULgN734uo-96">
          <mxGeometry x="110" width="50" height="10" as="geometry">
            <mxRectangle width="50" height="10" as="alternateBounds" />
          </mxGeometry>
        </mxCell>
        <mxCell id="kY5r3ShVXXyULgN734uo-99" style="shape=tableRow;horizontal=0;startSize=0;swimlaneHead=0;swimlaneBody=0;strokeColor=inherit;top=0;left=0;bottom=0;right=0;collapsible=0;dropTarget=0;fillColor=none;points=[[0,0.5],[1,0.5]];portConstraint=eastwest;fontSize=16;movable=0;resizable=0;rotatable=0;deletable=0;editable=0;locked=1;connectable=0;" vertex="1" parent="kY5r3ShVXXyULgN734uo-39">
          <mxGeometry y="90" width="160" height="10" as="geometry" />
        </mxCell>
        <mxCell id="kY5r3ShVXXyULgN734uo-100" style="shape=partialRectangle;html=1;whiteSpace=wrap;connectable=0;strokeColor=inherit;overflow=hidden;fillColor=none;top=0;left=0;bottom=0;right=0;pointerEvents=1;fontSize=16;movable=0;resizable=0;rotatable=0;deletable=0;editable=0;locked=1;" vertex="1" parent="kY5r3ShVXXyULgN734uo-99">
          <mxGeometry width="110" height="10" as="geometry">
            <mxRectangle width="110" height="10" as="alternateBounds" />
          </mxGeometry>
        </mxCell>
        <mxCell id="kY5r3ShVXXyULgN734uo-101" style="shape=partialRectangle;html=1;whiteSpace=wrap;connectable=0;strokeColor=inherit;overflow=hidden;fillColor=none;top=0;left=0;bottom=0;right=0;pointerEvents=1;fontSize=16;movable=0;resizable=0;rotatable=0;deletable=0;editable=0;locked=1;" vertex="1" parent="kY5r3ShVXXyULgN734uo-99">
          <mxGeometry x="110" width="50" height="10" as="geometry">
            <mxRectangle width="50" height="10" as="alternateBounds" />
          </mxGeometry>
        </mxCell>
        <mxCell id="kY5r3ShVXXyULgN734uo-102" style="shape=tableRow;horizontal=0;startSize=0;swimlaneHead=0;swimlaneBody=0;strokeColor=inherit;top=0;left=0;bottom=0;right=0;collapsible=0;dropTarget=0;fillColor=none;points=[[0,0.5],[1,0.5]];portConstraint=eastwest;fontSize=16;movable=0;resizable=0;rotatable=0;deletable=0;editable=0;locked=1;connectable=0;" vertex="1" parent="kY5r3ShVXXyULgN734uo-39">
          <mxGeometry y="100" width="160" height="10" as="geometry" />
        </mxCell>
        <mxCell id="kY5r3ShVXXyULgN734uo-103" style="shape=partialRectangle;html=1;whiteSpace=wrap;connectable=0;strokeColor=inherit;overflow=hidden;fillColor=none;top=0;left=0;bottom=0;right=0;pointerEvents=1;fontSize=16;movable=0;resizable=0;rotatable=0;deletable=0;editable=0;locked=1;" vertex="1" parent="kY5r3ShVXXyULgN734uo-102">
          <mxGeometry width="110" height="10" as="geometry">
            <mxRectangle width="110" height="10" as="alternateBounds" />
          </mxGeometry>
        </mxCell>
        <mxCell id="kY5r3ShVXXyULgN734uo-104" style="shape=partialRectangle;html=1;whiteSpace=wrap;connectable=0;strokeColor=inherit;overflow=hidden;fillColor=none;top=0;left=0;bottom=0;right=0;pointerEvents=1;fontSize=16;movable=0;resizable=0;rotatable=0;deletable=0;editable=0;locked=1;" vertex="1" parent="kY5r3ShVXXyULgN734uo-102">
          <mxGeometry x="110" width="50" height="10" as="geometry">
            <mxRectangle width="50" height="10" as="alternateBounds" />
          </mxGeometry>
        </mxCell>
        <mxCell id="kY5r3ShVXXyULgN734uo-52" style="shape=tableRow;horizontal=0;startSize=0;swimlaneHead=0;swimlaneBody=0;strokeColor=inherit;top=0;left=0;bottom=0;right=0;collapsible=0;dropTarget=0;fillColor=none;points=[[0,0.5],[1,0.5]];portConstraint=eastwest;fontSize=16;movable=0;resizable=0;rotatable=0;deletable=0;editable=0;locked=1;connectable=0;" vertex="1" parent="kY5r3ShVXXyULgN734uo-39">
          <mxGeometry y="110" width="160" height="10" as="geometry" />
        </mxCell>
        <mxCell id="kY5r3ShVXXyULgN734uo-53" style="shape=partialRectangle;html=1;whiteSpace=wrap;connectable=0;strokeColor=inherit;overflow=hidden;fillColor=none;top=0;left=0;bottom=0;right=0;pointerEvents=1;fontSize=16;movable=0;resizable=0;rotatable=0;deletable=0;editable=0;locked=1;" vertex="1" parent="kY5r3ShVXXyULgN734uo-52">
          <mxGeometry width="110" height="10" as="geometry">
            <mxRectangle width="110" height="10" as="alternateBounds" />
          </mxGeometry>
        </mxCell>
        <mxCell id="kY5r3ShVXXyULgN734uo-55" style="shape=partialRectangle;html=1;whiteSpace=wrap;connectable=0;strokeColor=inherit;overflow=hidden;fillColor=none;top=0;left=0;bottom=0;right=0;pointerEvents=1;fontSize=16;movable=0;resizable=0;rotatable=0;deletable=0;editable=0;locked=1;" vertex="1" parent="kY5r3ShVXXyULgN734uo-52">
          <mxGeometry x="110" width="50" height="10" as="geometry">
            <mxRectangle width="50" height="10" as="alternateBounds" />
          </mxGeometry>
        </mxCell>
        <mxCell id="kY5r3ShVXXyULgN734uo-218" value="Train time-series" style="swimlane;whiteSpace=wrap;html=1;movable=1;resizable=1;rotatable=1;deletable=1;editable=1;locked=0;connectable=1;fontStyle=0;fillColor=#fff2cc;strokeColor=#d6b656;" vertex="1" parent="1">
          <mxGeometry x="480" y="80" width="160" height="90" as="geometry" />
        </mxCell>
        <mxCell id="kY5r3ShVXXyULgN734uo-219" value="" style="shape=table;startSize=0;container=1;collapsible=0;childLayout=tableLayout;fontSize=16;movable=1;resizable=1;rotatable=1;deletable=1;editable=1;locked=0;connectable=1;fillColor=#fff2cc;strokeColor=#d6b656;" vertex="1" parent="kY5r3ShVXXyULgN734uo-218">
          <mxGeometry y="20" width="160" height="70" as="geometry" />
        </mxCell>
        <mxCell id="kY5r3ShVXXyULgN734uo-220" style="shape=tableRow;horizontal=0;startSize=0;swimlaneHead=0;swimlaneBody=0;strokeColor=inherit;top=0;left=0;bottom=0;right=0;collapsible=0;dropTarget=0;fillColor=none;points=[[0,0.5],[1,0.5]];portConstraint=eastwest;fontSize=16;movable=0;resizable=0;rotatable=0;deletable=0;editable=0;locked=1;connectable=0;" vertex="1" parent="kY5r3ShVXXyULgN734uo-219">
          <mxGeometry width="160" height="10" as="geometry" />
        </mxCell>
        <mxCell id="kY5r3ShVXXyULgN734uo-221" style="shape=partialRectangle;html=1;whiteSpace=wrap;connectable=0;strokeColor=inherit;overflow=hidden;fillColor=none;top=0;left=0;bottom=0;right=0;pointerEvents=1;fontSize=16;movable=0;resizable=0;rotatable=0;deletable=0;editable=0;locked=1;" vertex="1" parent="kY5r3ShVXXyULgN734uo-220">
          <mxGeometry width="110" height="10" as="geometry">
            <mxRectangle width="110" height="10" as="alternateBounds" />
          </mxGeometry>
        </mxCell>
        <mxCell id="kY5r3ShVXXyULgN734uo-222" value="" style="shape=partialRectangle;html=1;whiteSpace=wrap;connectable=0;strokeColor=inherit;overflow=hidden;fillColor=none;top=0;left=0;bottom=0;right=0;pointerEvents=1;fontSize=16;movable=0;resizable=0;rotatable=0;deletable=0;editable=0;locked=1;" vertex="1" parent="kY5r3ShVXXyULgN734uo-220">
          <mxGeometry x="110" width="50" height="10" as="geometry">
            <mxRectangle width="50" height="10" as="alternateBounds" />
          </mxGeometry>
        </mxCell>
        <mxCell id="kY5r3ShVXXyULgN734uo-223" style="shape=tableRow;horizontal=0;startSize=0;swimlaneHead=0;swimlaneBody=0;strokeColor=inherit;top=0;left=0;bottom=0;right=0;collapsible=0;dropTarget=0;fillColor=none;points=[[0,0.5],[1,0.5]];portConstraint=eastwest;fontSize=16;movable=0;resizable=0;rotatable=0;deletable=0;editable=0;locked=1;connectable=0;" vertex="1" parent="kY5r3ShVXXyULgN734uo-219">
          <mxGeometry y="10" width="160" height="10" as="geometry" />
        </mxCell>
        <mxCell id="kY5r3ShVXXyULgN734uo-224" style="shape=partialRectangle;html=1;whiteSpace=wrap;connectable=0;strokeColor=inherit;overflow=hidden;fillColor=none;top=0;left=0;bottom=0;right=0;pointerEvents=1;fontSize=16;movable=0;resizable=0;rotatable=0;deletable=0;editable=0;locked=1;" vertex="1" parent="kY5r3ShVXXyULgN734uo-223">
          <mxGeometry width="110" height="10" as="geometry">
            <mxRectangle width="110" height="10" as="alternateBounds" />
          </mxGeometry>
        </mxCell>
        <mxCell id="kY5r3ShVXXyULgN734uo-225" style="shape=partialRectangle;html=1;whiteSpace=wrap;connectable=0;strokeColor=inherit;overflow=hidden;fillColor=none;top=0;left=0;bottom=0;right=0;pointerEvents=1;fontSize=16;movable=0;resizable=0;rotatable=0;deletable=0;editable=0;locked=1;" vertex="1" parent="kY5r3ShVXXyULgN734uo-223">
          <mxGeometry x="110" width="50" height="10" as="geometry">
            <mxRectangle width="50" height="10" as="alternateBounds" />
          </mxGeometry>
        </mxCell>
        <mxCell id="kY5r3ShVXXyULgN734uo-226" style="shape=tableRow;horizontal=0;startSize=0;swimlaneHead=0;swimlaneBody=0;strokeColor=inherit;top=0;left=0;bottom=0;right=0;collapsible=0;dropTarget=0;fillColor=none;points=[[0,0.5],[1,0.5]];portConstraint=eastwest;fontSize=16;movable=0;resizable=0;rotatable=0;deletable=0;editable=0;locked=1;connectable=0;" vertex="1" parent="kY5r3ShVXXyULgN734uo-219">
          <mxGeometry y="20" width="160" height="10" as="geometry" />
        </mxCell>
        <mxCell id="kY5r3ShVXXyULgN734uo-227" style="shape=partialRectangle;html=1;whiteSpace=wrap;connectable=0;strokeColor=inherit;overflow=hidden;fillColor=none;top=0;left=0;bottom=0;right=0;pointerEvents=1;fontSize=16;movable=0;resizable=0;rotatable=0;deletable=0;editable=0;locked=1;" vertex="1" parent="kY5r3ShVXXyULgN734uo-226">
          <mxGeometry width="110" height="10" as="geometry">
            <mxRectangle width="110" height="10" as="alternateBounds" />
          </mxGeometry>
        </mxCell>
        <mxCell id="kY5r3ShVXXyULgN734uo-228" style="shape=partialRectangle;html=1;whiteSpace=wrap;connectable=0;strokeColor=inherit;overflow=hidden;fillColor=none;top=0;left=0;bottom=0;right=0;pointerEvents=1;fontSize=16;movable=0;resizable=0;rotatable=0;deletable=0;editable=0;locked=1;" vertex="1" parent="kY5r3ShVXXyULgN734uo-226">
          <mxGeometry x="110" width="50" height="10" as="geometry">
            <mxRectangle width="50" height="10" as="alternateBounds" />
          </mxGeometry>
        </mxCell>
        <mxCell id="kY5r3ShVXXyULgN734uo-229" style="shape=tableRow;horizontal=0;startSize=0;swimlaneHead=0;swimlaneBody=0;strokeColor=inherit;top=0;left=0;bottom=0;right=0;collapsible=0;dropTarget=0;fillColor=none;points=[[0,0.5],[1,0.5]];portConstraint=eastwest;fontSize=16;movable=0;resizable=0;rotatable=0;deletable=0;editable=0;locked=1;connectable=0;" vertex="1" parent="kY5r3ShVXXyULgN734uo-219">
          <mxGeometry y="30" width="160" height="10" as="geometry" />
        </mxCell>
        <mxCell id="kY5r3ShVXXyULgN734uo-230" style="shape=partialRectangle;html=1;whiteSpace=wrap;connectable=0;strokeColor=inherit;overflow=hidden;fillColor=none;top=0;left=0;bottom=0;right=0;pointerEvents=1;fontSize=16;movable=0;resizable=0;rotatable=0;deletable=0;editable=0;locked=1;" vertex="1" parent="kY5r3ShVXXyULgN734uo-229">
          <mxGeometry width="110" height="10" as="geometry">
            <mxRectangle width="110" height="10" as="alternateBounds" />
          </mxGeometry>
        </mxCell>
        <mxCell id="kY5r3ShVXXyULgN734uo-231" style="shape=partialRectangle;html=1;whiteSpace=wrap;connectable=0;strokeColor=inherit;overflow=hidden;fillColor=none;top=0;left=0;bottom=0;right=0;pointerEvents=1;fontSize=16;movable=0;resizable=0;rotatable=0;deletable=0;editable=0;locked=1;" vertex="1" parent="kY5r3ShVXXyULgN734uo-229">
          <mxGeometry x="110" width="50" height="10" as="geometry">
            <mxRectangle width="50" height="10" as="alternateBounds" />
          </mxGeometry>
        </mxCell>
        <mxCell id="kY5r3ShVXXyULgN734uo-232" style="shape=tableRow;horizontal=0;startSize=0;swimlaneHead=0;swimlaneBody=0;strokeColor=inherit;top=0;left=0;bottom=0;right=0;collapsible=0;dropTarget=0;fillColor=none;points=[[0,0.5],[1,0.5]];portConstraint=eastwest;fontSize=16;movable=0;resizable=0;rotatable=0;deletable=0;editable=0;locked=1;connectable=0;" vertex="1" parent="kY5r3ShVXXyULgN734uo-219">
          <mxGeometry y="40" width="160" height="10" as="geometry" />
        </mxCell>
        <mxCell id="kY5r3ShVXXyULgN734uo-233" style="shape=partialRectangle;html=1;whiteSpace=wrap;connectable=0;strokeColor=inherit;overflow=hidden;fillColor=none;top=0;left=0;bottom=0;right=0;pointerEvents=1;fontSize=16;movable=0;resizable=0;rotatable=0;deletable=0;editable=0;locked=1;" vertex="1" parent="kY5r3ShVXXyULgN734uo-232">
          <mxGeometry width="110" height="10" as="geometry">
            <mxRectangle width="110" height="10" as="alternateBounds" />
          </mxGeometry>
        </mxCell>
        <mxCell id="kY5r3ShVXXyULgN734uo-234" style="shape=partialRectangle;html=1;whiteSpace=wrap;connectable=0;strokeColor=inherit;overflow=hidden;fillColor=none;top=0;left=0;bottom=0;right=0;pointerEvents=1;fontSize=16;movable=0;resizable=0;rotatable=0;deletable=0;editable=0;locked=1;" vertex="1" parent="kY5r3ShVXXyULgN734uo-232">
          <mxGeometry x="110" width="50" height="10" as="geometry">
            <mxRectangle width="50" height="10" as="alternateBounds" />
          </mxGeometry>
        </mxCell>
        <mxCell id="kY5r3ShVXXyULgN734uo-235" style="shape=tableRow;horizontal=0;startSize=0;swimlaneHead=0;swimlaneBody=0;strokeColor=inherit;top=0;left=0;bottom=0;right=0;collapsible=0;dropTarget=0;fillColor=none;points=[[0,0.5],[1,0.5]];portConstraint=eastwest;fontSize=16;movable=0;resizable=0;rotatable=0;deletable=0;editable=0;locked=1;connectable=0;" vertex="1" parent="kY5r3ShVXXyULgN734uo-219">
          <mxGeometry y="50" width="160" height="10" as="geometry" />
        </mxCell>
        <mxCell id="kY5r3ShVXXyULgN734uo-236" style="shape=partialRectangle;html=1;whiteSpace=wrap;connectable=0;strokeColor=inherit;overflow=hidden;fillColor=none;top=0;left=0;bottom=0;right=0;pointerEvents=1;fontSize=16;movable=0;resizable=0;rotatable=0;deletable=0;editable=0;locked=1;" vertex="1" parent="kY5r3ShVXXyULgN734uo-235">
          <mxGeometry width="110" height="10" as="geometry">
            <mxRectangle width="110" height="10" as="alternateBounds" />
          </mxGeometry>
        </mxCell>
        <mxCell id="kY5r3ShVXXyULgN734uo-237" style="shape=partialRectangle;html=1;whiteSpace=wrap;connectable=0;strokeColor=inherit;overflow=hidden;fillColor=none;top=0;left=0;bottom=0;right=0;pointerEvents=1;fontSize=16;movable=0;resizable=0;rotatable=0;deletable=0;editable=0;locked=1;" vertex="1" parent="kY5r3ShVXXyULgN734uo-235">
          <mxGeometry x="110" width="50" height="10" as="geometry">
            <mxRectangle width="50" height="10" as="alternateBounds" />
          </mxGeometry>
        </mxCell>
        <mxCell id="kY5r3ShVXXyULgN734uo-238" style="shape=tableRow;horizontal=0;startSize=0;swimlaneHead=0;swimlaneBody=0;strokeColor=inherit;top=0;left=0;bottom=0;right=0;collapsible=0;dropTarget=0;fillColor=none;points=[[0,0.5],[1,0.5]];portConstraint=eastwest;fontSize=16;movable=0;resizable=0;rotatable=0;deletable=0;editable=0;locked=1;connectable=0;" vertex="1" parent="kY5r3ShVXXyULgN734uo-219">
          <mxGeometry y="60" width="160" height="10" as="geometry" />
        </mxCell>
        <mxCell id="kY5r3ShVXXyULgN734uo-239" style="shape=partialRectangle;html=1;whiteSpace=wrap;connectable=0;strokeColor=inherit;overflow=hidden;fillColor=none;top=0;left=0;bottom=0;right=0;pointerEvents=1;fontSize=16;movable=0;resizable=0;rotatable=0;deletable=0;editable=0;locked=1;" vertex="1" parent="kY5r3ShVXXyULgN734uo-238">
          <mxGeometry width="110" height="10" as="geometry">
            <mxRectangle width="110" height="10" as="alternateBounds" />
          </mxGeometry>
        </mxCell>
        <mxCell id="kY5r3ShVXXyULgN734uo-240" style="shape=partialRectangle;html=1;whiteSpace=wrap;connectable=0;strokeColor=inherit;overflow=hidden;fillColor=none;top=0;left=0;bottom=0;right=0;pointerEvents=1;fontSize=16;movable=0;resizable=0;rotatable=0;deletable=0;editable=0;locked=1;" vertex="1" parent="kY5r3ShVXXyULgN734uo-238">
          <mxGeometry x="110" width="50" height="10" as="geometry">
            <mxRectangle width="50" height="10" as="alternateBounds" />
          </mxGeometry>
        </mxCell>
        <mxCell id="kY5r3ShVXXyULgN734uo-297" value="" style="endArrow=classic;html=1;rounded=0;entryX=0;entryY=0.5;entryDx=0;entryDy=0;" edge="1" parent="kY5r3ShVXXyULgN734uo-218" target="kY5r3ShVXXyULgN734uo-295">
          <mxGeometry width="50" height="50" relative="1" as="geometry">
            <mxPoint x="80" y="90" as="sourcePoint" />
            <mxPoint x="130" y="40" as="targetPoint" />
          </mxGeometry>
        </mxCell>
        <mxCell id="kY5r3ShVXXyULgN734uo-256" value="Validation time-series" style="swimlane;whiteSpace=wrap;html=1;movable=1;resizable=1;rotatable=1;deletable=1;editable=1;locked=0;connectable=1;fontStyle=0;fillColor=#fff2cc;strokeColor=#d6b656;" vertex="1" parent="1">
          <mxGeometry x="280" y="260" width="160" height="70" as="geometry" />
        </mxCell>
        <mxCell id="kY5r3ShVXXyULgN734uo-257" value="" style="shape=table;startSize=0;container=1;collapsible=0;childLayout=tableLayout;fontSize=16;movable=1;resizable=1;rotatable=1;deletable=1;editable=1;locked=0;connectable=1;fillColor=#fff2cc;strokeColor=#d6b656;" vertex="1" parent="kY5r3ShVXXyULgN734uo-256">
          <mxGeometry y="20" width="160" height="50" as="geometry" />
        </mxCell>
        <mxCell id="kY5r3ShVXXyULgN734uo-258" style="shape=tableRow;horizontal=0;startSize=0;swimlaneHead=0;swimlaneBody=0;strokeColor=inherit;top=0;left=0;bottom=0;right=0;collapsible=0;dropTarget=0;fillColor=none;points=[[0,0.5],[1,0.5]];portConstraint=eastwest;fontSize=16;movable=0;resizable=0;rotatable=0;deletable=0;editable=0;locked=1;connectable=0;" vertex="1" parent="kY5r3ShVXXyULgN734uo-257">
          <mxGeometry width="160" height="10" as="geometry" />
        </mxCell>
        <mxCell id="kY5r3ShVXXyULgN734uo-259" style="shape=partialRectangle;html=1;whiteSpace=wrap;connectable=0;strokeColor=inherit;overflow=hidden;fillColor=none;top=0;left=0;bottom=0;right=0;pointerEvents=1;fontSize=16;movable=0;resizable=0;rotatable=0;deletable=0;editable=0;locked=1;" vertex="1" parent="kY5r3ShVXXyULgN734uo-258">
          <mxGeometry width="110" height="10" as="geometry">
            <mxRectangle width="110" height="10" as="alternateBounds" />
          </mxGeometry>
        </mxCell>
        <mxCell id="kY5r3ShVXXyULgN734uo-260" value="" style="shape=partialRectangle;html=1;whiteSpace=wrap;connectable=0;strokeColor=inherit;overflow=hidden;fillColor=none;top=0;left=0;bottom=0;right=0;pointerEvents=1;fontSize=16;movable=0;resizable=0;rotatable=0;deletable=0;editable=0;locked=1;" vertex="1" parent="kY5r3ShVXXyULgN734uo-258">
          <mxGeometry x="110" width="50" height="10" as="geometry">
            <mxRectangle width="50" height="10" as="alternateBounds" />
          </mxGeometry>
        </mxCell>
        <mxCell id="kY5r3ShVXXyULgN734uo-261" style="shape=tableRow;horizontal=0;startSize=0;swimlaneHead=0;swimlaneBody=0;strokeColor=inherit;top=0;left=0;bottom=0;right=0;collapsible=0;dropTarget=0;fillColor=none;points=[[0,0.5],[1,0.5]];portConstraint=eastwest;fontSize=16;movable=0;resizable=0;rotatable=0;deletable=0;editable=0;locked=1;connectable=0;" vertex="1" parent="kY5r3ShVXXyULgN734uo-257">
          <mxGeometry y="10" width="160" height="10" as="geometry" />
        </mxCell>
        <mxCell id="kY5r3ShVXXyULgN734uo-262" style="shape=partialRectangle;html=1;whiteSpace=wrap;connectable=0;strokeColor=inherit;overflow=hidden;fillColor=none;top=0;left=0;bottom=0;right=0;pointerEvents=1;fontSize=16;movable=0;resizable=0;rotatable=0;deletable=0;editable=0;locked=1;" vertex="1" parent="kY5r3ShVXXyULgN734uo-261">
          <mxGeometry width="110" height="10" as="geometry">
            <mxRectangle width="110" height="10" as="alternateBounds" />
          </mxGeometry>
        </mxCell>
        <mxCell id="kY5r3ShVXXyULgN734uo-263" style="shape=partialRectangle;html=1;whiteSpace=wrap;connectable=0;strokeColor=inherit;overflow=hidden;fillColor=none;top=0;left=0;bottom=0;right=0;pointerEvents=1;fontSize=16;movable=0;resizable=0;rotatable=0;deletable=0;editable=0;locked=1;" vertex="1" parent="kY5r3ShVXXyULgN734uo-261">
          <mxGeometry x="110" width="50" height="10" as="geometry">
            <mxRectangle width="50" height="10" as="alternateBounds" />
          </mxGeometry>
        </mxCell>
        <mxCell id="kY5r3ShVXXyULgN734uo-264" style="shape=tableRow;horizontal=0;startSize=0;swimlaneHead=0;swimlaneBody=0;strokeColor=inherit;top=0;left=0;bottom=0;right=0;collapsible=0;dropTarget=0;fillColor=none;points=[[0,0.5],[1,0.5]];portConstraint=eastwest;fontSize=16;movable=0;resizable=0;rotatable=0;deletable=0;editable=0;locked=1;connectable=0;" vertex="1" parent="kY5r3ShVXXyULgN734uo-257">
          <mxGeometry y="20" width="160" height="10" as="geometry" />
        </mxCell>
        <mxCell id="kY5r3ShVXXyULgN734uo-265" style="shape=partialRectangle;html=1;whiteSpace=wrap;connectable=0;strokeColor=inherit;overflow=hidden;fillColor=none;top=0;left=0;bottom=0;right=0;pointerEvents=1;fontSize=16;movable=0;resizable=0;rotatable=0;deletable=0;editable=0;locked=1;" vertex="1" parent="kY5r3ShVXXyULgN734uo-264">
          <mxGeometry width="110" height="10" as="geometry">
            <mxRectangle width="110" height="10" as="alternateBounds" />
          </mxGeometry>
        </mxCell>
        <mxCell id="kY5r3ShVXXyULgN734uo-266" style="shape=partialRectangle;html=1;whiteSpace=wrap;connectable=0;strokeColor=inherit;overflow=hidden;fillColor=none;top=0;left=0;bottom=0;right=0;pointerEvents=1;fontSize=16;movable=0;resizable=0;rotatable=0;deletable=0;editable=0;locked=1;" vertex="1" parent="kY5r3ShVXXyULgN734uo-264">
          <mxGeometry x="110" width="50" height="10" as="geometry">
            <mxRectangle width="50" height="10" as="alternateBounds" />
          </mxGeometry>
        </mxCell>
        <mxCell id="kY5r3ShVXXyULgN734uo-267" style="shape=tableRow;horizontal=0;startSize=0;swimlaneHead=0;swimlaneBody=0;strokeColor=inherit;top=0;left=0;bottom=0;right=0;collapsible=0;dropTarget=0;fillColor=none;points=[[0,0.5],[1,0.5]];portConstraint=eastwest;fontSize=16;movable=0;resizable=0;rotatable=0;deletable=0;editable=0;locked=1;connectable=0;" vertex="1" parent="kY5r3ShVXXyULgN734uo-257">
          <mxGeometry y="30" width="160" height="10" as="geometry" />
        </mxCell>
        <mxCell id="kY5r3ShVXXyULgN734uo-268" style="shape=partialRectangle;html=1;whiteSpace=wrap;connectable=0;strokeColor=inherit;overflow=hidden;fillColor=none;top=0;left=0;bottom=0;right=0;pointerEvents=1;fontSize=16;movable=0;resizable=0;rotatable=0;deletable=0;editable=0;locked=1;" vertex="1" parent="kY5r3ShVXXyULgN734uo-267">
          <mxGeometry width="110" height="10" as="geometry">
            <mxRectangle width="110" height="10" as="alternateBounds" />
          </mxGeometry>
        </mxCell>
        <mxCell id="kY5r3ShVXXyULgN734uo-269" style="shape=partialRectangle;html=1;whiteSpace=wrap;connectable=0;strokeColor=inherit;overflow=hidden;fillColor=none;top=0;left=0;bottom=0;right=0;pointerEvents=1;fontSize=16;movable=0;resizable=0;rotatable=0;deletable=0;editable=0;locked=1;" vertex="1" parent="kY5r3ShVXXyULgN734uo-267">
          <mxGeometry x="110" width="50" height="10" as="geometry">
            <mxRectangle width="50" height="10" as="alternateBounds" />
          </mxGeometry>
        </mxCell>
        <mxCell id="kY5r3ShVXXyULgN734uo-270" style="shape=tableRow;horizontal=0;startSize=0;swimlaneHead=0;swimlaneBody=0;strokeColor=inherit;top=0;left=0;bottom=0;right=0;collapsible=0;dropTarget=0;fillColor=none;points=[[0,0.5],[1,0.5]];portConstraint=eastwest;fontSize=16;movable=0;resizable=0;rotatable=0;deletable=0;editable=0;locked=1;connectable=0;" vertex="1" parent="kY5r3ShVXXyULgN734uo-257">
          <mxGeometry y="40" width="160" height="10" as="geometry" />
        </mxCell>
        <mxCell id="kY5r3ShVXXyULgN734uo-271" style="shape=partialRectangle;html=1;whiteSpace=wrap;connectable=0;strokeColor=inherit;overflow=hidden;fillColor=none;top=0;left=0;bottom=0;right=0;pointerEvents=1;fontSize=16;movable=0;resizable=0;rotatable=0;deletable=0;editable=0;locked=1;" vertex="1" parent="kY5r3ShVXXyULgN734uo-270">
          <mxGeometry width="110" height="10" as="geometry">
            <mxRectangle width="110" height="10" as="alternateBounds" />
          </mxGeometry>
        </mxCell>
        <mxCell id="kY5r3ShVXXyULgN734uo-272" style="shape=partialRectangle;html=1;whiteSpace=wrap;connectable=0;strokeColor=inherit;overflow=hidden;fillColor=none;top=0;left=0;bottom=0;right=0;pointerEvents=1;fontSize=16;movable=0;resizable=0;rotatable=0;deletable=0;editable=0;locked=1;" vertex="1" parent="kY5r3ShVXXyULgN734uo-270">
          <mxGeometry x="110" width="50" height="10" as="geometry">
            <mxRectangle width="50" height="10" as="alternateBounds" />
          </mxGeometry>
        </mxCell>
        <mxCell id="kY5r3ShVXXyULgN734uo-290" style="edgeStyle=orthogonalEdgeStyle;rounded=0;orthogonalLoop=1;jettySize=auto;html=1;entryX=0.5;entryY=0;entryDx=0;entryDy=0;" edge="1" parent="1" source="kY5r3ShVXXyULgN734uo-279" target="kY5r3ShVXXyULgN734uo-282">
          <mxGeometry relative="1" as="geometry" />
        </mxCell>
        <mxCell id="kY5r3ShVXXyULgN734uo-279" value="" style="ellipse;whiteSpace=wrap;html=1;aspect=fixed;" vertex="1" parent="1">
          <mxGeometry x="550" y="290" width="20" height="20" as="geometry" />
        </mxCell>
        <mxCell id="kY5r3ShVXXyULgN734uo-280" value="" style="ellipse;whiteSpace=wrap;html=1;aspect=fixed;" vertex="1" parent="1">
          <mxGeometry x="550" y="400" width="20" height="20" as="geometry" />
        </mxCell>
        <mxCell id="kY5r3ShVXXyULgN734uo-288" style="edgeStyle=orthogonalEdgeStyle;rounded=1;orthogonalLoop=1;jettySize=auto;html=1;exitX=1;exitY=0.5;exitDx=0;exitDy=0;entryX=0;entryY=0.5;entryDx=0;entryDy=0;" edge="1" parent="1" source="kY5r3ShVXXyULgN734uo-282" target="kY5r3ShVXXyULgN734uo-282">
          <mxGeometry relative="1" as="geometry">
            <mxPoint x="520" y="350" as="targetPoint" />
            <Array as="points">
              <mxPoint x="610" y="355" />
              <mxPoint x="610" y="320" />
              <mxPoint x="510" y="320" />
              <mxPoint x="510" y="355" />
            </Array>
          </mxGeometry>
        </mxCell>
        <mxCell id="kY5r3ShVXXyULgN734uo-291" style="edgeStyle=orthogonalEdgeStyle;rounded=0;orthogonalLoop=1;jettySize=auto;html=1;entryX=0.5;entryY=0;entryDx=0;entryDy=0;" edge="1" parent="1" source="kY5r3ShVXXyULgN734uo-282" target="kY5r3ShVXXyULgN734uo-280">
          <mxGeometry relative="1" as="geometry" />
        </mxCell>
        <mxCell id="kY5r3ShVXXyULgN734uo-282" value="RNN &lt;br&gt;cell" style="rounded=1;whiteSpace=wrap;html=1;" vertex="1" parent="1">
          <mxGeometry x="530" y="330" width="60" height="50" as="geometry" />
        </mxCell>
        <mxCell id="kY5r3ShVXXyULgN734uo-289" style="edgeStyle=orthogonalEdgeStyle;rounded=0;orthogonalLoop=1;jettySize=auto;html=1;entryX=0.5;entryY=0;entryDx=0;entryDy=0;" edge="1" parent="1" source="kY5r3ShVXXyULgN734uo-39" target="kY5r3ShVXXyULgN734uo-256">
          <mxGeometry relative="1" as="geometry" />
        </mxCell>
        <mxCell id="kY5r3ShVXXyULgN734uo-302" style="edgeStyle=orthogonalEdgeStyle;rounded=0;orthogonalLoop=1;jettySize=auto;html=1;exitX=1;exitY=0.5;exitDx=0;exitDy=0;entryX=0.5;entryY=0;entryDx=0;entryDy=0;" edge="1" parent="1" source="kY5r3ShVXXyULgN734uo-295" target="kY5r3ShVXXyULgN734uo-301">
          <mxGeometry relative="1" as="geometry" />
        </mxCell>
        <mxCell id="kY5r3ShVXXyULgN734uo-295" value="" style="shape=step;perimeter=stepPerimeter;whiteSpace=wrap;html=1;fixedSize=1;rotation=90;fillColor=#EB0000;fontColor=#ffffff;strokeColor=#6F0000;fillOpacity=75;" vertex="1" parent="1">
          <mxGeometry x="527.5" y="180.5" width="65" height="90" as="geometry" />
        </mxCell>
        <mxCell id="kY5r3ShVXXyULgN734uo-298" value="Model building" style="text;html=1;strokeColor=none;fillColor=none;align=center;verticalAlign=middle;whiteSpace=wrap;rounded=0;" vertex="1" parent="1">
          <mxGeometry x="530" y="214.5" width="60" height="30" as="geometry" />
        </mxCell>
        <mxCell id="kY5r3ShVXXyULgN734uo-360" style="edgeStyle=orthogonalEdgeStyle;rounded=0;orthogonalLoop=1;jettySize=auto;html=1;" edge="1" parent="1" source="kY5r3ShVXXyULgN734uo-301">
          <mxGeometry relative="1" as="geometry">
            <mxPoint x="680" y="355" as="targetPoint" />
          </mxGeometry>
        </mxCell>
        <mxCell id="kY5r3ShVXXyULgN734uo-301" value="" style="swimlane;startSize=0;swimlaneFillColor=#FF9999;fillStyle=auto;fillColor=default;fillOpacity=25;" vertex="1" parent="1">
          <mxGeometry x="500" y="280" width="120" height="150" as="geometry" />
        </mxCell>
        <mxCell id="kY5r3ShVXXyULgN734uo-303" value="Model" style="text;html=1;align=center;verticalAlign=middle;resizable=0;points=[];autosize=1;strokeColor=none;fillColor=none;fontStyle=1" vertex="1" parent="1">
          <mxGeometry x="566" y="280" width="60" height="30" as="geometry" />
        </mxCell>
        <mxCell id="kY5r3ShVXXyULgN734uo-305" style="edgeStyle=orthogonalEdgeStyle;rounded=0;orthogonalLoop=1;jettySize=auto;html=1;exitX=0.5;exitY=1;exitDx=0;exitDy=0;entryX=0;entryY=0.5;entryDx=0;entryDy=0;" edge="1" parent="1" source="kY5r3ShVXXyULgN734uo-257" target="kY5r3ShVXXyULgN734uo-301">
          <mxGeometry relative="1" as="geometry">
            <mxPoint x="360.2758620689656" y="400.0000000000001" as="targetPoint" />
          </mxGeometry>
        </mxCell>
        <mxCell id="kY5r3ShVXXyULgN734uo-343" value="Predictions" style="swimlane;whiteSpace=wrap;html=1;movable=1;resizable=1;rotatable=1;deletable=1;editable=1;locked=0;connectable=1;fontStyle=0;fillColor=#fff2cc;strokeColor=#d6b656;" vertex="1" parent="1">
          <mxGeometry x="680" y="330" width="80" height="70" as="geometry" />
        </mxCell>
        <mxCell id="kY5r3ShVXXyULgN734uo-380" style="edgeStyle=orthogonalEdgeStyle;rounded=0;orthogonalLoop=1;jettySize=auto;html=1;" edge="1" parent="kY5r3ShVXXyULgN734uo-343" source="kY5r3ShVXXyULgN734uo-344">
          <mxGeometry relative="1" as="geometry">
            <mxPoint x="-560" y="-90" as="targetPoint" />
            <Array as="points">
              <mxPoint x="120" y="45" />
              <mxPoint x="120" y="-290" />
              <mxPoint x="-600" y="-290" />
            </Array>
          </mxGeometry>
        </mxCell>
        <mxCell id="kY5r3ShVXXyULgN734uo-344" value="" style="shape=table;startSize=0;container=1;collapsible=0;childLayout=tableLayout;fontSize=16;movable=1;resizable=1;rotatable=1;deletable=1;editable=1;locked=0;connectable=1;fillColor=#fff2cc;strokeColor=#d6b656;" vertex="1" parent="kY5r3ShVXXyULgN734uo-343">
          <mxGeometry y="20" width="80" height="50" as="geometry" />
        </mxCell>
        <mxCell id="kY5r3ShVXXyULgN734uo-345" style="shape=tableRow;horizontal=0;startSize=0;swimlaneHead=0;swimlaneBody=0;strokeColor=inherit;top=0;left=0;bottom=0;right=0;collapsible=0;dropTarget=0;fillColor=none;points=[[0,0.5],[1,0.5]];portConstraint=eastwest;fontSize=16;movable=0;resizable=0;rotatable=0;deletable=0;editable=0;locked=1;connectable=0;" vertex="1" parent="kY5r3ShVXXyULgN734uo-344">
          <mxGeometry width="80" height="10" as="geometry" />
        </mxCell>
        <mxCell id="kY5r3ShVXXyULgN734uo-346" style="shape=partialRectangle;html=1;whiteSpace=wrap;connectable=0;strokeColor=inherit;overflow=hidden;fillColor=none;top=0;left=0;bottom=0;right=0;pointerEvents=1;fontSize=16;movable=0;resizable=0;rotatable=0;deletable=0;editable=0;locked=1;" vertex="1" parent="kY5r3ShVXXyULgN734uo-345">
          <mxGeometry width="80" height="10" as="geometry">
            <mxRectangle width="80" height="10" as="alternateBounds" />
          </mxGeometry>
        </mxCell>
        <mxCell id="kY5r3ShVXXyULgN734uo-348" style="shape=tableRow;horizontal=0;startSize=0;swimlaneHead=0;swimlaneBody=0;strokeColor=inherit;top=0;left=0;bottom=0;right=0;collapsible=0;dropTarget=0;fillColor=none;points=[[0,0.5],[1,0.5]];portConstraint=eastwest;fontSize=16;movable=0;resizable=0;rotatable=0;deletable=0;editable=0;locked=1;connectable=0;" vertex="1" parent="kY5r3ShVXXyULgN734uo-344">
          <mxGeometry y="10" width="80" height="10" as="geometry" />
        </mxCell>
        <mxCell id="kY5r3ShVXXyULgN734uo-349" style="shape=partialRectangle;html=1;whiteSpace=wrap;connectable=0;strokeColor=inherit;overflow=hidden;fillColor=none;top=0;left=0;bottom=0;right=0;pointerEvents=1;fontSize=16;movable=0;resizable=0;rotatable=0;deletable=0;editable=0;locked=1;" vertex="1" parent="kY5r3ShVXXyULgN734uo-348">
          <mxGeometry width="80" height="10" as="geometry">
            <mxRectangle width="80" height="10" as="alternateBounds" />
          </mxGeometry>
        </mxCell>
        <mxCell id="kY5r3ShVXXyULgN734uo-351" style="shape=tableRow;horizontal=0;startSize=0;swimlaneHead=0;swimlaneBody=0;strokeColor=inherit;top=0;left=0;bottom=0;right=0;collapsible=0;dropTarget=0;fillColor=none;points=[[0,0.5],[1,0.5]];portConstraint=eastwest;fontSize=16;movable=0;resizable=0;rotatable=0;deletable=0;editable=0;locked=1;connectable=0;" vertex="1" parent="kY5r3ShVXXyULgN734uo-344">
          <mxGeometry y="20" width="80" height="10" as="geometry" />
        </mxCell>
        <mxCell id="kY5r3ShVXXyULgN734uo-352" style="shape=partialRectangle;html=1;whiteSpace=wrap;connectable=0;strokeColor=inherit;overflow=hidden;fillColor=none;top=0;left=0;bottom=0;right=0;pointerEvents=1;fontSize=16;movable=0;resizable=0;rotatable=0;deletable=0;editable=0;locked=1;" vertex="1" parent="kY5r3ShVXXyULgN734uo-351">
          <mxGeometry width="80" height="10" as="geometry">
            <mxRectangle width="80" height="10" as="alternateBounds" />
          </mxGeometry>
        </mxCell>
        <mxCell id="kY5r3ShVXXyULgN734uo-354" style="shape=tableRow;horizontal=0;startSize=0;swimlaneHead=0;swimlaneBody=0;strokeColor=inherit;top=0;left=0;bottom=0;right=0;collapsible=0;dropTarget=0;fillColor=none;points=[[0,0.5],[1,0.5]];portConstraint=eastwest;fontSize=16;movable=0;resizable=0;rotatable=0;deletable=0;editable=0;locked=1;connectable=0;" vertex="1" parent="kY5r3ShVXXyULgN734uo-344">
          <mxGeometry y="30" width="80" height="10" as="geometry" />
        </mxCell>
        <mxCell id="kY5r3ShVXXyULgN734uo-355" style="shape=partialRectangle;html=1;whiteSpace=wrap;connectable=0;strokeColor=inherit;overflow=hidden;fillColor=none;top=0;left=0;bottom=0;right=0;pointerEvents=1;fontSize=16;movable=0;resizable=0;rotatable=0;deletable=0;editable=0;locked=1;" vertex="1" parent="kY5r3ShVXXyULgN734uo-354">
          <mxGeometry width="80" height="10" as="geometry">
            <mxRectangle width="80" height="10" as="alternateBounds" />
          </mxGeometry>
        </mxCell>
        <mxCell id="kY5r3ShVXXyULgN734uo-357" style="shape=tableRow;horizontal=0;startSize=0;swimlaneHead=0;swimlaneBody=0;strokeColor=inherit;top=0;left=0;bottom=0;right=0;collapsible=0;dropTarget=0;fillColor=none;points=[[0,0.5],[1,0.5]];portConstraint=eastwest;fontSize=16;movable=0;resizable=0;rotatable=0;deletable=0;editable=0;locked=1;connectable=0;" vertex="1" parent="kY5r3ShVXXyULgN734uo-344">
          <mxGeometry y="40" width="80" height="10" as="geometry" />
        </mxCell>
        <mxCell id="kY5r3ShVXXyULgN734uo-358" style="shape=partialRectangle;html=1;whiteSpace=wrap;connectable=0;strokeColor=inherit;overflow=hidden;fillColor=none;top=0;left=0;bottom=0;right=0;pointerEvents=1;fontSize=16;movable=0;resizable=0;rotatable=0;deletable=0;editable=0;locked=1;" vertex="1" parent="kY5r3ShVXXyULgN734uo-357">
          <mxGeometry width="80" height="10" as="geometry">
            <mxRectangle width="80" height="10" as="alternateBounds" />
          </mxGeometry>
        </mxCell>
        <mxCell id="kY5r3ShVXXyULgN734uo-376" style="edgeStyle=orthogonalEdgeStyle;rounded=0;orthogonalLoop=1;jettySize=auto;html=1;entryX=0.474;entryY=-0.001;entryDx=0;entryDy=0;exitX=0.577;exitY=1.001;exitDx=0;exitDy=0;exitPerimeter=0;entryPerimeter=0;" edge="1" parent="1" source="kY5r3ShVXXyULgN734uo-361" target="kY5r3ShVXXyULgN734uo-373">
          <mxGeometry relative="1" as="geometry" />
        </mxCell>
        <mxCell id="kY5r3ShVXXyULgN734uo-361" value="" style="swimlane;startSize=0;swimlaneFillColor=#24FF5E;fillOpacity=20;" vertex="1" parent="1">
          <mxGeometry x="260" y="60" width="520" height="390" as="geometry" />
        </mxCell>
        <mxCell id="kY5r3ShVXXyULgN734uo-377" value="&lt;font style=&quot;font-size: 16px;&quot;&gt;Experiment&lt;/font&gt;" style="text;html=1;strokeColor=none;fillColor=none;align=center;verticalAlign=middle;whiteSpace=wrap;rounded=0;fontStyle=1" vertex="1" parent="kY5r3ShVXXyULgN734uo-361">
          <mxGeometry x="430" y="20" width="60" height="30" as="geometry" />
        </mxCell>
        <mxCell id="kY5r3ShVXXyULgN734uo-367" style="edgeStyle=orthogonalEdgeStyle;rounded=0;orthogonalLoop=1;jettySize=auto;html=1;entryX=0.5;entryY=0;entryDx=0;entryDy=0;" edge="1" parent="1" source="kY5r3ShVXXyULgN734uo-368" target="kY5r3ShVXXyULgN734uo-372">
          <mxGeometry relative="1" as="geometry" />
        </mxCell>
        <mxCell id="kY5r3ShVXXyULgN734uo-368" value="" style="ellipse;whiteSpace=wrap;html=1;aspect=fixed;" vertex="1" parent="1">
          <mxGeometry x="550" y="490" width="20" height="20" as="geometry" />
        </mxCell>
        <mxCell id="kY5r3ShVXXyULgN734uo-369" value="" style="ellipse;whiteSpace=wrap;html=1;aspect=fixed;" vertex="1" parent="1">
          <mxGeometry x="550" y="600" width="20" height="20" as="geometry" />
        </mxCell>
        <mxCell id="kY5r3ShVXXyULgN734uo-370" style="edgeStyle=orthogonalEdgeStyle;rounded=1;orthogonalLoop=1;jettySize=auto;html=1;exitX=1;exitY=0.5;exitDx=0;exitDy=0;entryX=0;entryY=0.5;entryDx=0;entryDy=0;" edge="1" parent="1" source="kY5r3ShVXXyULgN734uo-372" target="kY5r3ShVXXyULgN734uo-372">
          <mxGeometry relative="1" as="geometry">
            <mxPoint x="520" y="550" as="targetPoint" />
            <Array as="points">
              <mxPoint x="610" y="555" />
              <mxPoint x="610" y="520" />
              <mxPoint x="510" y="520" />
              <mxPoint x="510" y="555" />
            </Array>
          </mxGeometry>
        </mxCell>
        <mxCell id="kY5r3ShVXXyULgN734uo-371" style="edgeStyle=orthogonalEdgeStyle;rounded=0;orthogonalLoop=1;jettySize=auto;html=1;entryX=0.5;entryY=0;entryDx=0;entryDy=0;" edge="1" parent="1" source="kY5r3ShVXXyULgN734uo-372" target="kY5r3ShVXXyULgN734uo-369">
          <mxGeometry relative="1" as="geometry" />
        </mxCell>
        <mxCell id="kY5r3ShVXXyULgN734uo-372" value="RNN &lt;br&gt;cell" style="rounded=1;whiteSpace=wrap;html=1;" vertex="1" parent="1">
          <mxGeometry x="530" y="530" width="60" height="50" as="geometry" />
        </mxCell>
        <mxCell id="kY5r3ShVXXyULgN734uo-396" style="edgeStyle=orthogonalEdgeStyle;rounded=0;orthogonalLoop=1;jettySize=auto;html=1;" edge="1" parent="1" source="kY5r3ShVXXyULgN734uo-373">
          <mxGeometry relative="1" as="geometry">
            <mxPoint x="680" y="555" as="targetPoint" />
          </mxGeometry>
        </mxCell>
        <mxCell id="kY5r3ShVXXyULgN734uo-373" value="" style="swimlane;startSize=0;swimlaneFillColor=#4F84FF;fillStyle=auto;fillOpacity=25;" vertex="1" parent="1">
          <mxGeometry x="500" y="480" width="126" height="150" as="geometry" />
        </mxCell>
        <mxCell id="kY5r3ShVXXyULgN734uo-374" value="Final&lt;br&gt;Model" style="text;html=1;align=center;verticalAlign=middle;resizable=0;points=[];autosize=1;strokeColor=none;fillColor=none;fontStyle=1" vertex="1" parent="kY5r3ShVXXyULgN734uo-373">
          <mxGeometry x="66" width="60" height="40" as="geometry" />
        </mxCell>
        <mxCell id="kY5r3ShVXXyULgN734uo-381" value="Evaluation and experiment config update" style="text;html=1;strokeColor=none;fillColor=none;align=center;verticalAlign=middle;whiteSpace=wrap;rounded=0;fontStyle=1;fontSize=13;" vertex="1" parent="1">
          <mxGeometry x="310" y="10" width="330" height="30" as="geometry" />
        </mxCell>
        <mxCell id="kY5r3ShVXXyULgN734uo-383" value="Final predictions" style="swimlane;whiteSpace=wrap;html=1;movable=1;resizable=1;rotatable=1;deletable=1;editable=1;locked=0;connectable=1;fontStyle=0;fillColor=#fff2cc;strokeColor=#d6b656;" vertex="1" parent="1">
          <mxGeometry x="681" y="530" width="90" height="70" as="geometry" />
        </mxCell>
        <mxCell id="kY5r3ShVXXyULgN734uo-385" value="" style="shape=table;startSize=0;container=1;collapsible=0;childLayout=tableLayout;fontSize=16;movable=1;resizable=1;rotatable=1;deletable=1;editable=1;locked=0;connectable=1;fillColor=#fff2cc;strokeColor=#d6b656;" vertex="1" parent="kY5r3ShVXXyULgN734uo-383">
          <mxGeometry y="20" width="90" height="50" as="geometry" />
        </mxCell>
        <mxCell id="kY5r3ShVXXyULgN734uo-386" style="shape=tableRow;horizontal=0;startSize=0;swimlaneHead=0;swimlaneBody=0;strokeColor=inherit;top=0;left=0;bottom=0;right=0;collapsible=0;dropTarget=0;fillColor=none;points=[[0,0.5],[1,0.5]];portConstraint=eastwest;fontSize=16;movable=0;resizable=0;rotatable=0;deletable=0;editable=0;locked=1;connectable=0;" vertex="1" parent="kY5r3ShVXXyULgN734uo-385">
          <mxGeometry width="90" height="10" as="geometry" />
        </mxCell>
        <mxCell id="kY5r3ShVXXyULgN734uo-387" style="shape=partialRectangle;html=1;whiteSpace=wrap;connectable=0;strokeColor=inherit;overflow=hidden;fillColor=none;top=0;left=0;bottom=0;right=0;pointerEvents=1;fontSize=16;movable=0;resizable=0;rotatable=0;deletable=0;editable=0;locked=1;" vertex="1" parent="kY5r3ShVXXyULgN734uo-386">
          <mxGeometry width="90" height="10" as="geometry">
            <mxRectangle width="90" height="10" as="alternateBounds" />
          </mxGeometry>
        </mxCell>
        <mxCell id="kY5r3ShVXXyULgN734uo-388" style="shape=tableRow;horizontal=0;startSize=0;swimlaneHead=0;swimlaneBody=0;strokeColor=inherit;top=0;left=0;bottom=0;right=0;collapsible=0;dropTarget=0;fillColor=none;points=[[0,0.5],[1,0.5]];portConstraint=eastwest;fontSize=16;movable=0;resizable=0;rotatable=0;deletable=0;editable=0;locked=1;connectable=0;" vertex="1" parent="kY5r3ShVXXyULgN734uo-385">
          <mxGeometry y="10" width="90" height="10" as="geometry" />
        </mxCell>
        <mxCell id="kY5r3ShVXXyULgN734uo-389" style="shape=partialRectangle;html=1;whiteSpace=wrap;connectable=0;strokeColor=inherit;overflow=hidden;fillColor=none;top=0;left=0;bottom=0;right=0;pointerEvents=1;fontSize=16;movable=0;resizable=0;rotatable=0;deletable=0;editable=0;locked=1;" vertex="1" parent="kY5r3ShVXXyULgN734uo-388">
          <mxGeometry width="90" height="10" as="geometry">
            <mxRectangle width="90" height="10" as="alternateBounds" />
          </mxGeometry>
        </mxCell>
        <mxCell id="kY5r3ShVXXyULgN734uo-390" style="shape=tableRow;horizontal=0;startSize=0;swimlaneHead=0;swimlaneBody=0;strokeColor=inherit;top=0;left=0;bottom=0;right=0;collapsible=0;dropTarget=0;fillColor=none;points=[[0,0.5],[1,0.5]];portConstraint=eastwest;fontSize=16;movable=0;resizable=0;rotatable=0;deletable=0;editable=0;locked=1;connectable=0;" vertex="1" parent="kY5r3ShVXXyULgN734uo-385">
          <mxGeometry y="20" width="90" height="10" as="geometry" />
        </mxCell>
        <mxCell id="kY5r3ShVXXyULgN734uo-391" style="shape=partialRectangle;html=1;whiteSpace=wrap;connectable=0;strokeColor=inherit;overflow=hidden;fillColor=none;top=0;left=0;bottom=0;right=0;pointerEvents=1;fontSize=16;movable=0;resizable=0;rotatable=0;deletable=0;editable=0;locked=1;" vertex="1" parent="kY5r3ShVXXyULgN734uo-390">
          <mxGeometry width="90" height="10" as="geometry">
            <mxRectangle width="90" height="10" as="alternateBounds" />
          </mxGeometry>
        </mxCell>
        <mxCell id="kY5r3ShVXXyULgN734uo-392" style="shape=tableRow;horizontal=0;startSize=0;swimlaneHead=0;swimlaneBody=0;strokeColor=inherit;top=0;left=0;bottom=0;right=0;collapsible=0;dropTarget=0;fillColor=none;points=[[0,0.5],[1,0.5]];portConstraint=eastwest;fontSize=16;movable=0;resizable=0;rotatable=0;deletable=0;editable=0;locked=1;connectable=0;" vertex="1" parent="kY5r3ShVXXyULgN734uo-385">
          <mxGeometry y="30" width="90" height="10" as="geometry" />
        </mxCell>
        <mxCell id="kY5r3ShVXXyULgN734uo-393" style="shape=partialRectangle;html=1;whiteSpace=wrap;connectable=0;strokeColor=inherit;overflow=hidden;fillColor=none;top=0;left=0;bottom=0;right=0;pointerEvents=1;fontSize=16;movable=0;resizable=0;rotatable=0;deletable=0;editable=0;locked=1;" vertex="1" parent="kY5r3ShVXXyULgN734uo-392">
          <mxGeometry width="90" height="10" as="geometry">
            <mxRectangle width="90" height="10" as="alternateBounds" />
          </mxGeometry>
        </mxCell>
        <mxCell id="kY5r3ShVXXyULgN734uo-394" style="shape=tableRow;horizontal=0;startSize=0;swimlaneHead=0;swimlaneBody=0;strokeColor=inherit;top=0;left=0;bottom=0;right=0;collapsible=0;dropTarget=0;fillColor=none;points=[[0,0.5],[1,0.5]];portConstraint=eastwest;fontSize=16;movable=0;resizable=0;rotatable=0;deletable=0;editable=0;locked=1;connectable=0;" vertex="1" parent="kY5r3ShVXXyULgN734uo-385">
          <mxGeometry y="40" width="90" height="10" as="geometry" />
        </mxCell>
        <mxCell id="kY5r3ShVXXyULgN734uo-395" style="shape=partialRectangle;html=1;whiteSpace=wrap;connectable=0;strokeColor=inherit;overflow=hidden;fillColor=none;top=0;left=0;bottom=0;right=0;pointerEvents=1;fontSize=16;movable=0;resizable=0;rotatable=0;deletable=0;editable=0;locked=1;" vertex="1" parent="kY5r3ShVXXyULgN734uo-394">
          <mxGeometry width="90" height="10" as="geometry">
            <mxRectangle width="90" height="10" as="alternateBounds" />
          </mxGeometry>
        </mxCell>
      </root>
    </mxGraphModel>
  </diagram>
</mxfile>
